:SAMPLES-PER-SECOND 30
:FULLY-SPECIFIED
:DEGREES
290
root  0.9486 32.694 -47.7542 -159.378 5.82489 -176.071
RightUpLeg  -62.7652 -8.47364 7.97871
RightLeg  82.99 15.0965 -21.7566
RightFoot  -5.1582 -0.140925 2.12306
RightToes  -1.16415e-010 -3.18055e-015 -2.98177e-016
Spine  38.5162 -0.453455 -0.219108
Spine1  -4.38867 -0.61843 -8.98615
HEad  -18.451 -1.56092 5.46632
LeftShoulder1  -3.88251e-019 9.70628e-020 -3.87848e-018
LeftArm  -23.1141 32.4759 -40.4415
LeftForeArm  -3.92127 -46.1904 11.7599
LeftHand  -6.40819 -10.4625 45.83
RightShoulder  4.81219 9.11284 23.6609
RightArm  20.4862 -49.1934 15.823
RightForeArm  -18.6151 53.891 -36.6031
RightHand  -1.52439 2.57427 -21.7584
LeftUpLeg  -57.0098 3.06227 -3.51925
LeftLeg  66.3489 -9.20824 12.5018
LeftFoot  -30.7154 -0.274441 -1.23337
LeftToes  1.69338e-011 3.79281e-011 -2.20049e-011
291
root  0.989607 32.6966 -48.3158 -159.875 6.89781 -175.152
RightUpLeg  -67.3902 -7.32822 10.4617
RightLeg  79.1799 13.8176 -19.5321
RightFoot  -5.40978 -0.1484 2.33145
RightToes  -1.16415e-010 -3.18055e-015 -2.98177e-016
Spine  38.9679 -0.254127 0.0879158
Spine1  -3.93513 -0.762732 -7.31771
HEad  -18.643 -0.700966 5.00345
LeftShoulder1  -3.88251e-019 9.70628e-020 -3.87848e-018
LeftArm  -22.5686 31.1447 -40.9887
LeftForeArm  -4.31507 -45.0155 11.2301
LeftHand  -6.35991 -10.4754 45.4859
RightShoulder  4.83533 9.1293 23.7654
RightArm  21.621 -50.2254 15.9513
RightForeArm  -17.0556 53.608 -36.2995
RightHand  -1.51423 2.6256 -21.484
LeftUpLeg  -55.1938 3.67901 -2.57221
LeftLeg  66.6685 -8.98587 13.347
LeftFoot  -32.0539 -0.424692 -2.02316
LeftToes  1.69338e-011 3.79281e-011 -2.20049e-011
292
root  1.08845 32.6013 -48.8717 -160.316 7.52692 -174.757
RightUpLeg  -71.0113 -6.3022 12.2413
RightLeg  73.2544 12.4192 -16.3114
RightFoot  -4.80817 -0.212777 3.00366
RightToes  -1.16415e-010 -3.18055e-015 -2.98177e-016
Spine  39.5354 -0.232545 0.0826014
Spine1  -3.78984 -1.11549 -5.76527
HEad  -18.5635 0.0463163 4.59758
LeftShoulder1  -3.88251e-019 9.70628e-020 -3.87848e-018
LeftArm  -21.6882 29.5651 -41.8434
LeftForeArm  -4.23467 -43.4625 10.5989
LeftHand  -6.22685 -10.3273 45.0201
RightShoulder  4.93455 9.21856 24.1761
RightArm  22.9955 -51.031 15.8042
RightForeArm  -14.9395 52.8272 -35.314
RightHand  -1.48197 2.64958 -20.976
LeftUpLeg  -53.7488 4.08643 -2.07753
LeftLeg  67.3841 -8.97358 13.9144
LeftFoot  -33.3067 -0.582285 -2.75887
LeftToes  1.69338e-011 3.79281e-011 -2.20049e-011
293
root  1.23525 32.4482 -49.4196 -160.717 7.67754 -174.6
RightUpLeg  -73.35 -5.45367 13.4414
RightLeg  65.8864 11.9331 -11.4866
RightFoot  -5.49719 -0.360292 5.57113
RightToes  -1.16415e-010 -3.18055e-015 -2.98177e-016
Spine  40.2269 -0.406251 0.295425
Spine1  -3.85395 -1.47243 -4.50811
HEad  -18.6543 0.589396 4.10197
LeftShoulder1  -3.88251e-019 9.70628e-020 -3.87848e-018
LeftArm  -20.9375 27.4156 -43.3814
LeftForeArm  -3.49387 -41.4256 9.85805
LeftHand  -6.12459 -10.2223 44.6321
RightShoulder  5.00441 9.29037 24.4453
RightArm  24.2139 -51.9954 15.8257
RightForeArm  -12.2623 51.4686 -33.6359
RightHand  -1.42284 2.61935 -20.2304
LeftUpLeg  -52.5024 4.25722 -1.67504
LeftLeg  68.2595 -9.10902 14.201
LeftFoot  -34.6703 -0.750972 -3.44527
LeftToes  1.69338e-011 3.79281e-011 -2.20049e-011
294
root  1.43502 32.2629 -49.9754 -161.192 7.4781 -174.277
RightUpLeg  -73.7856 -4.41902 14.1233
RightLeg  57.0001 12.7644 -6.26451
RightFoot  -7.31813 -0.389339 7.8153
RightToes  -1.16415e-010 -3.18055e-015 -2.98177e-016
Spine  40.8685 -0.556268 0.962096
Spine1  -3.66927 -1.67074 -3.10162
HEad  -19.1545 0.894616 3.50248
LeftShoulder1  -3.88251e-019 9.70628e-020 -3.87848e-018
LeftArm  -20.8957 24.7482 -45.8007
LeftForeArm  -1.79665 -39.0395 9.0949
LeftHand  -6.05137 -10.1506 44.3399
RightShoulder  4.98907 9.29658 24.3441
RightArm  24.9745 -53.0173 16.4819
RightForeArm  -8.68973 49.4197 -31.3189
RightHand  -1.36864 2.64404 -19.421
LeftUpLeg  -51.2461 4.51268 -0.971403
LeftLeg  69.3172 -9.38406 14.201
LeftFoot  -36.1668 -0.929137 -4.06801
LeftToes  1.69338e-011 3.79281e-011 -2.20049e-011
295
root  1.73954 31.9908 -50.5962 -161.908 6.73557 -174.279
RightUpLeg  -72.4714 -3.29618 13.4252
RightLeg  47.8224 13.3139 -3.84207
RightFoot  -7.08711 -0.415575 8.05989
RightToes  -1.16415e-010 -3.18055e-015 -2.98177e-016
Spine  41.2844 -0.547207 1.30805
Spine1  -3.1157 -1.94602 -0.945411
HEad  -19.4646 0.982967 3.09827
LeftShoulder1  -3.88251e-019 9.70628e-020 -3.87848e-018
LeftArm  -21.2695 21.8303 -48.8332
LeftForeArm  0.0950144 -36.3362 8.29369
LeftHand  -5.86448 -9.84952 43.892
RightShoulder  4.96077 9.29178 24.1889
RightArm  25.7958 -53.6774 17.3408
RightForeArm  -4.45885 46.6555 -28.5416
RightHand  -1.34039 2.82604 -18.625
LeftUpLeg  -50.004 4.75027 -0.371235
LeftLeg  70.9343 -9.89116 13.8422
LeftFoot  -37.583 -1.12721 -4.71896
LeftToes  1.69338e-011 3.79281e-011 -2.20049e-011
296
root  2.16016 31.6065 -51.3108 -162.775 5.35793 -175.079
RightUpLeg  -71.3048 -2.56055 11.2658
RightLeg  42.6072 11.4421 -5.39975
RightFoot  -2.42565 -0.625974 6.71013
RightToes  -1.16415e-010 -3.18055e-015 -2.98177e-016
Spine  41.4288 -0.500185 1.00816
Spine1  -2.63505 -2.50217 1.71539
HEad  -18.9652 0.806242 3.11387
LeftShoulder1  -3.88251e-019 9.70628e-020 -3.87848e-018
LeftArm  -21.3354 18.874 -52.2313
LeftForeArm  1.17457 -33.2941 7.41444
LeftHand  -5.58089 -9.3915 43.1802
RightShoulder  4.97674 9.31358 24.24
RightArm  27.1125 -54.0829 17.7946
RightForeArm  -0.280343 43.3788 -25.6489
RightHand  -1.25812 2.98872 -17.1659
LeftUpLeg  -48.8775 4.63803 -0.245317
LeftLeg  73.1486 -10.5996 13.0753
LeftFoot  -38.8089 -1.36361 -5.50518
LeftToes  1.69338e-011 3.79281e-011 -2.20049e-011
297
root  2.63175 31.1784 -52.1063 -163.623 3.89409 -176.373
RightUpLeg  -71.7233 -2.98472 9.57004
RightLeg  44.11 9.39969 -7.86948
RightFoot  3.56172 -0.689148 4.52284
RightToes  -1.16415e-010 -3.18055e-015 -2.98177e-016
Spine  41.4472 -0.623212 0.529394
Spine1  -2.59416 -3.02251 3.61251
HEad  -18.1716 0.422321 3.4088
LeftShoulder1  -3.88251e-019 9.70628e-020 -3.87848e-018
LeftArm  -20.8908 16.0727 -55.9108
LeftForeArm  2.14285 -30.2151 6.58511
LeftHand  -5.38475 -9.16138 42.4222
RightShoulder  5.0301 9.3412 24.4964
RightArm  28.2799 -54.4967 18.1005
RightForeArm  3.5217 39.9465 -22.986
RightHand  -1.03383 2.92594 -14.2277
LeftUpLeg  -47.5295 4.45514 -0.37292
LeftLeg  75.4264 -11.3493 11.7494
LeftFoot  -40.1482 -1.61282 -6.24114
LeftToes  1.69338e-011 3.79281e-011 -2.20049e-011
298
root  3.08524 30.8233 -52.9588 -164.26 2.92807 -177.387
RightUpLeg  -72.8433 -4.50986 9.8182
RightLeg  49.0834 9.94903 -8.48369
RightFoot  5.23654 -0.339388 1.84707
RightToes  -1.16415e-010 -3.18055e-015 -2.98177e-016
Spine  41.3172 -1.01067 0.421492
Spine1  -2.79862 -3.20578 4.09245
HEad  -18.1858 0.24282 3.67758
LeftShoulder1  -3.88251e-019 9.70628e-020 -3.87848e-018
LeftArm  -19.9935 13.7816 -59.4592
LeftForeArm  4.87545 -27.6732 5.9749
LeftHand  -5.34052 -9.28789 41.7646
RightShoulder  5.12752 9.38136 24.9812
RightArm  28.2704 -54.5508 18.962
RightForeArm  6.94071 36.709 -20.7543
RightHand  -0.739183 2.76773 -10.423
LeftUpLeg  -45.6916 4.7563 -0.131583
LeftLeg  77.1565 -11.9903 9.80705
LeftFoot  -41.7678 -1.82017 -6.66724
LeftToes  1.69338e-011 3.79281e-011 -2.20049e-011
299
root  3.48976 30.6976 -53.7845 -164.556 2.74976 -177.703
RightUpLeg  -73.2279 -5.6688 11.1219
RightLeg  53.1304 11.5109 -7.39243
RightFoot  2.25097 0.148718 -1.2469
RightToes  -1.16415e-010 -3.18055e-015 -2.98177e-016
Spine  41.0322 -1.38912 0.722263
Spine1  -2.92363 -3.23811 4.21655
HEad  -19.1488 0.64419 3.70746
LeftShoulder1  -3.88251e-019 9.70628e-020 -3.87848e-018
LeftArm  -18.3173 12.3562 -62.2161
LeftForeArm  9.78443 -26.0064 5.53568
LeftHand  -5.35637 -9.60317 41.0496
RightShoulder  5.25644 9.45361 25.5807
RightArm  26.8944 -53.8985 20.5108
RightForeArm  9.28917 34.0835 -19.0893
RightHand  -0.545871 2.68603 -7.80883
LeftUpLeg  -43.5187 5.62318 0.694672
LeftLeg  77.7016 -12.3652 7.88468
LeftFoot  -42.9556 -1.97298 -6.94874
LeftToes  1.69338e-011 3.79281e-011 -2.20049e-011
